<svg xmlns="http://www.w3.org/2000/svg" width="169.231" height="50.143" viewBox="0 0 169.231 50.143">
  <g id="Group_11968" data-name="Group 11968" transform="translate(-4220 -6667.714)">
    <path id="Path_51347" data-name="Path 51347" d="M34.527,23.218a7.233,7.233,0,0,1,3.46-6.092,7.515,7.515,0,0,0-5.892-3.172c-2.444-.276-4.839,1.467-6.092,1.467-1.291,0-3.222-1.454-5.3-1.4a7.784,7.784,0,0,0-6.556,4.011c-2.846,4.889-.727,12.135,2.006,16.108,1.354,1.943,2.946,4.137,5.014,4.049,2.043-.088,2.808-1.3,5.265-1.3,2.432,0,3.134,1.291,5.265,1.254,2.194-.05,3.573-1.968,4.889-3.936a16.32,16.32,0,0,0,2.231-4.538,7.035,7.035,0,0,1-4.287-6.468ZM30.515,11.335a7.13,7.13,0,0,0,1.63-5.115,7.228,7.228,0,0,0-4.7,2.432,6.843,6.843,0,0,0-1.68,4.939,6.07,6.07,0,0,0,4.764-2.256ZM64,37.91H61.152L59.6,33.021H54.17L52.691,37.91H49.933l5.353-16.672H58.6l5.39,16.672Zm-4.889-6.957L57.73,26.6c-.163-.451-.439-1.5-.852-3.134h-.05c-.163.7-.426,1.755-.79,3.134l-1.4,4.35h4.488Zm18.7.815a6.869,6.869,0,0,1-1.655,4.839,4.874,4.874,0,0,1-3.685,1.579,3.693,3.693,0,0,1-3.422-1.7H69v6.331H66.33V29.862c0-1.291-.038-2.607-.1-3.961h2.357l.15,1.918h.05a4.438,4.438,0,0,1,4.049-2.156,4.493,4.493,0,0,1,3.548,1.692A6.706,6.706,0,0,1,77.8,31.793Zm-2.72.088a4.9,4.9,0,0,0-.8-2.883,2.7,2.7,0,0,0-2.332-1.2,2.787,2.787,0,0,0-1.793.664,3.063,3.063,0,0,0-1.053,1.717,4.047,4.047,0,0,0-.125.815v2.006A3.188,3.188,0,0,0,69.8,35.19a2.643,2.643,0,0,0,2.081.9,2.742,2.742,0,0,0,2.357-1.153,5.119,5.119,0,0,0,.84-3.071Zm16.56-.088a6.818,6.818,0,0,1-1.667,4.839A4.836,4.836,0,0,1,86.3,38.186a3.672,3.672,0,0,1-3.41-1.7h-.038v6.331h-2.67V29.862c0-1.291-.038-2.607-.1-3.961h2.344l.15,1.918h.05a4.411,4.411,0,0,1,4.049-2.156,4.476,4.476,0,0,1,3.548,1.692,6.645,6.645,0,0,1,1.429,4.438Zm-2.72.088a4.726,4.726,0,0,0-.8-2.883,2.712,2.712,0,0,0-2.332-1.2A2.763,2.763,0,0,0,84,28.433a3.046,3.046,0,0,0-1.04,1.717,3.308,3.308,0,0,0-.125.815v2.006a3.122,3.122,0,0,0,.8,2.219,2.949,2.949,0,0,0,4.463-.251,5.208,5.208,0,0,0,.84-3.071Zm18.189,1.379a4.518,4.518,0,0,1-1.479,3.472,6.634,6.634,0,0,1-4.55,1.454,7.891,7.891,0,0,1-4.325-1.04l.627-2.231a7.353,7.353,0,0,0,3.861,1.053,3.688,3.688,0,0,0,2.357-.677,2.249,2.249,0,0,0,.84-1.818,2.335,2.335,0,0,0-.689-1.717,6.622,6.622,0,0,0-2.294-1.291Q97.086,28.8,97.08,25.675a4.21,4.21,0,0,1,1.542-3.385,6.02,6.02,0,0,1,4.087-1.316,8.008,8.008,0,0,1,3.8.79l-.689,2.194a6.721,6.721,0,0,0-3.2-.752,3.228,3.228,0,0,0-2.206.677,1.976,1.976,0,0,0-.677,1.529,2.056,2.056,0,0,0,.752,1.63,8.61,8.61,0,0,0,2.432,1.291,8.057,8.057,0,0,1,3.172,2.031,4.167,4.167,0,0,1,1,2.883Zm8.85-5.353h-2.958v5.854c0,1.479.5,2.219,1.554,2.219a4.559,4.559,0,0,0,1.191-.125l.075,2.031a6.069,6.069,0,0,1-2.093.3,3.247,3.247,0,0,1-2.482-.965,4.764,4.764,0,0,1-.877-3.259V27.894h-1.755V25.888h1.755V23.695l2.632-.79v3.009h2.933v2.006Zm13.288,3.924a6.623,6.623,0,0,1-1.592,4.55,5.721,5.721,0,0,1-4.413,1.83,5.358,5.358,0,0,1-4.2-1.755,6.337,6.337,0,0,1-1.58-4.425,6.479,6.479,0,0,1,1.63-4.6,6.129,6.129,0,0,1,8.612-.025,6.522,6.522,0,0,1,1.529,4.425Zm-2.783.088a5.521,5.521,0,0,0-.715-2.858,2.609,2.609,0,0,0-2.382-1.442,2.667,2.667,0,0,0-2.457,1.442,5.3,5.3,0,0,0-.715,2.908,5.3,5.3,0,0,0,.715,2.846,2.666,2.666,0,0,0,2.419,1.454,2.7,2.7,0,0,0,2.407-1.467A5.626,5.626,0,0,0,126.476,31.893Zm11.458-3.66a4.453,4.453,0,0,0-.84-.075,2.585,2.585,0,0,0-2.181,1.066,4.167,4.167,0,0,0-.652,2.382V37.91h-2.67l.025-8.236c0-1.379-.038-2.632-.1-3.786h2.307l.1,2.319H134a4.169,4.169,0,0,1,1.341-1.918,3.2,3.2,0,0,1,1.93-.627,3.511,3.511,0,0,1,.652.038v2.545Zm11.959,3.1a6.693,6.693,0,0,1-.1,1.216h-8.023a3.517,3.517,0,0,0,1.166,2.72,4.082,4.082,0,0,0,2.632.827,9.127,9.127,0,0,0,3.259-.564l.4,1.88a10.323,10.323,0,0,1-4.011.727,5.924,5.924,0,0,1-4.413-1.63,6.143,6.143,0,0,1-1.592-4.425,6.978,6.978,0,0,1,1.479-4.538,5.2,5.2,0,0,1,4.225-1.93,4.463,4.463,0,0,1,3.936,1.918,6.455,6.455,0,0,1,1.078,3.786Zm-2.557-.689a3.661,3.661,0,0,0-.5-2.056,2.363,2.363,0,0,0-2.131-1.128,2.545,2.545,0,0,0-2.131,1.1,3.937,3.937,0,0,0-.8,2.081ZM58.244,10.958a4.1,4.1,0,0,1-1.329,3.347,5.351,5.351,0,0,1-3.51,1.028,13.441,13.441,0,0,1-1.905-.125V7.2a12.732,12.732,0,0,1,2.256-.163,5,5,0,0,1,3.259.928,3.791,3.791,0,0,1,1.216,3.009Zm-1.379.05A3.037,3.037,0,0,0,56.113,8.8a3.08,3.08,0,0,0-2.231-.752,4.628,4.628,0,0,0-1.066.075v6.142c.163,0,.464.025.877.025a3.189,3.189,0,0,0,2.344-.84A3.491,3.491,0,0,0,56.84,11Zm8.712,1.254a3.293,3.293,0,0,1-.752,2.231,2.837,2.837,0,0,1-2.181.9,2.584,2.584,0,0,1-2.068-.877,3.15,3.15,0,0,1-.752-2.169,3.18,3.18,0,0,1,.79-2.231,2.777,2.777,0,0,1,2.131-.877,2.681,2.681,0,0,1,2.106.877,3.053,3.053,0,0,1,.752,2.156Zm-1.354.038a2.809,2.809,0,0,0-.351-1.4,1.367,1.367,0,0,0-2.382-.013,2.575,2.575,0,0,0-.351,1.429,2.681,2.681,0,0,0,.351,1.379,1.329,1.329,0,0,0,2.357,0,2.627,2.627,0,0,0,.376-1.417ZM75.443,9.354l-1.855,5.892H72.372L71.62,12.7a16.88,16.88,0,0,1-.5-1.93,14.372,14.372,0,0,1-.5,1.918l-.8,2.545H68.586l-1.73-5.892H68.21l.677,2.8q.244,1,.414,1.88c.125-.476.276-1.1.5-1.88l.84-2.808H71.72l.8,2.758c.188.677.351,1.329.476,1.943h.025a19.224,19.224,0,0,1,.4-1.943l.727-2.758H75.43Zm6.807,5.9H80.934V11.874c0-1.04-.4-1.554-1.191-1.554a1.2,1.2,0,0,0-.953.414,1.49,1.49,0,0,0-.376,1v3.51h-1.3V11.034c0-.526,0-1.091-.038-1.692h1.166l.05.915h.038a2,2,0,0,1,.677-.7,2.05,2.05,0,0,1,1.2-.351,1.89,1.89,0,0,1,1.379.539,2.609,2.609,0,0,1,.677,1.956v3.548Zm3.635,0H84.556V6.646h1.316Zm7.722-3a3.187,3.187,0,0,1-.777,2.231,2.773,2.773,0,0,1-2.169.9,2.593,2.593,0,0,1-2.056-.877,3.165,3.165,0,0,1-.777-2.169,3.133,3.133,0,0,1,.8-2.231,2.777,2.777,0,0,1,2.131-.877,2.7,2.7,0,0,1,2.106.877,3.053,3.053,0,0,1,.752,2.156Zm-1.379.038a2.68,2.68,0,0,0-.338-1.4,1.335,1.335,0,0,0-1.191-.7,1.315,1.315,0,0,0-1.2.689,2.582,2.582,0,0,0-.376,1.429,2.468,2.468,0,0,0,.376,1.379,1.292,1.292,0,0,0,1.178.715,1.357,1.357,0,0,0,1.178-.715,2.627,2.627,0,0,0,.376-1.417Zm7.735,2.958H98.784l-.125-.677h-.025a2.045,2.045,0,0,1-1.717.8,1.748,1.748,0,0,1-1.341-.539,1.6,1.6,0,0,1-.464-1.191,1.873,1.873,0,0,1,.9-1.655,4.727,4.727,0,0,1,2.557-.552v-.125c0-.777-.414-1.166-1.228-1.166a2.747,2.747,0,0,0-1.542.439l-.251-.877a3.837,3.837,0,0,1,2.006-.5q2.332,0,2.332,2.444v2.181a8.372,8.372,0,0,0,.088,1.417Zm-1.379-2.031V12.35c-1.429-.038-2.156.351-2.156,1.178a.909.909,0,0,0,.251.689,1.125,1.125,0,0,0,.652.213,1.272,1.272,0,0,0,.8-.276,1.125,1.125,0,0,0,.464-.689v-.251Zm8.838,2.031h-1.166l-.05-.94h-.025a1.976,1.976,0,0,1-1.905,1.078,2.144,2.144,0,0,1-1.755-.84,3.125,3.125,0,0,1-.727-2.181,3.35,3.35,0,0,1,.777-2.319,2.344,2.344,0,0,1,1.818-.827,1.746,1.746,0,0,1,1.667.8h.025V6.646H107.4v7.02c0,.577,0,1.1.038,1.592Zm-1.354-2.482v-1a1.243,1.243,0,0,0-.038-.4,1.641,1.641,0,0,0-.476-.8,1.273,1.273,0,0,0-.877-.326,1.356,1.356,0,0,0-1.166.577,2.49,2.49,0,0,0-.426,1.5,2.285,2.285,0,0,0,.4,1.417,1.409,1.409,0,0,0,1.153.589,1.254,1.254,0,0,0,1.04-.5,1.592,1.592,0,0,0,.376-1.078Zm12.6-.514a3.187,3.187,0,0,1-.777,2.231,2.773,2.773,0,0,1-2.169.9,2.584,2.584,0,0,1-2.068-.877,3.165,3.165,0,0,1-.777-2.169,3.133,3.133,0,0,1,.8-2.231,2.777,2.777,0,0,1,2.131-.877,2.681,2.681,0,0,1,2.106.877,3.053,3.053,0,0,1,.752,2.156Zm-1.379.038a2.68,2.68,0,0,0-.338-1.4,1.367,1.367,0,0,0-2.382-.013,2.575,2.575,0,0,0-.351,1.429,2.681,2.681,0,0,0,.351,1.379,1.339,1.339,0,0,0,2.369,0,2.627,2.627,0,0,0,.376-1.417Zm8.437,2.958h-1.3V11.874c0-1.04-.4-1.554-1.191-1.554a1.162,1.162,0,0,0-.965.414,1.49,1.49,0,0,0-.376,1v3.51h-1.279V11.034c0-.526-.025-1.091-.063-1.692H121.7l.063.915h.038a2,2,0,0,1,.677-.7,1.974,1.974,0,0,1,1.178-.351,1.89,1.89,0,0,1,1.379.539,2.609,2.609,0,0,1,.677,1.956v3.548Zm8.85-4.927H133.12v2.883q0,1.091.752,1.091a2.526,2.526,0,0,0,.6-.063l.038,1a3.524,3.524,0,0,1-1.04.125,1.615,1.615,0,0,1-1.216-.464,2.325,2.325,0,0,1-.439-1.592V10.332h-.877l.025-.978h.852V8.263l1.291-.376V9.329h1.454v.978Zm6.945,4.927H140.2V11.9c0-1.053-.376-1.592-1.178-1.592a1.234,1.234,0,0,0-1.254.928,1.088,1.088,0,0,0-.075.476v3.548h-1.316V6.646h1.3v3.56h.025a1.97,1.97,0,0,1,1.755-.978,1.871,1.871,0,0,1,1.379.539,2.7,2.7,0,0,1,.652,1.981v3.51Zm7.17-3.234a2.793,2.793,0,0,1-.038.6h-3.936a1.648,1.648,0,0,0,.564,1.329,2.086,2.086,0,0,0,1.291.4,4.355,4.355,0,0,0,1.6-.276l.2.915a4.773,4.773,0,0,1-1.981.376,2.872,2.872,0,0,1-2.156-.815,2.961,2.961,0,0,1-.777-2.181,3.447,3.447,0,0,1,.727-2.219,2.514,2.514,0,0,1,2.068-.953,2.221,2.221,0,0,1,1.931.965A3.257,3.257,0,0,1,148.689,12.024Zm-1.254-.338a1.583,1.583,0,0,0-.251-1,1.112,1.112,0,0,0-1.04-.552,1.225,1.225,0,0,0-1.04.539,1.756,1.756,0,0,0-.376,1h2.72Z" transform="translate(4223.243 6669.293)" fill="#fff"/>
    <path id="Path_51348" data-name="Path 51348" d="M163.215,48.889a4.768,4.768,0,0,0,4.764-4.676V5.929a4.768,4.768,0,0,0-4.764-4.676H5.929A4.676,4.676,0,0,0,1.254,5.929V44.213a4.692,4.692,0,0,0,4.676,4.676Zm0,1.254H5.929A5.949,5.949,0,0,1,0,44.213V5.929A5.941,5.941,0,0,1,5.929,0H163.215a6.017,6.017,0,0,1,6.017,5.929V44.213A6.025,6.025,0,0,1,163.215,50.143Z" transform="translate(4220 6667.714)" fill="#fff"/>
  </g>
</svg>
