<svg xmlns="http://www.w3.org/2000/svg" width="135.824" height="50.896" viewBox="0 0 135.824 50.896">
  <g id="Group_11949" data-name="Group 11949" transform="translate(-1760.072 -634.467)">
    <path id="Subtraction_16" data-name="Subtraction 16" d="M1803.56,685.1h-36.266a7.225,7.225,0,0,1-7.221-7.208V641.675a7.225,7.225,0,0,1,7.221-7.208h36.186a7.225,7.225,0,0,1,7.221,7.208V677.8a7.141,7.141,0,0,1-7.141,7.3Zm-32.337-34.983a2.391,2.391,0,0,0-.47.046,2.63,2.63,0,0,0-1.461.973,2.279,2.279,0,0,0-.324,1.625l3.815,16.318.007.02a4.922,4.922,0,0,0,.237.628,14.2,14.2,0,0,0,5.428,6.911,15.222,15.222,0,0,0,17.8-.588,14.263,14.263,0,0,0,5.188-8.108,2.282,2.282,0,0,0-.328-1.785,2.1,2.1,0,0,0-1.541-1.056,2.533,2.533,0,0,0-2.923,1.869,9.854,9.854,0,0,1-9.662,7.465,10.091,10.091,0,0,1-6.852-2.638,9.277,9.277,0,0,1-3.043-6.452h.559a5.492,5.492,0,0,1,3.166,1.136l2.193,1.785a3.432,3.432,0,0,0,2.015.742c.086,0,.172,0,.258-.013h.08l8.038-.809a.456.456,0,0,0,.4-.489.536.536,0,0,0-.1-.29l-.005-.01c-.019-.032-.037-.065-.056-.1a.616.616,0,0,0-.408-.164h-7.3a.487.487,0,1,1,0-.973h8.2a1.092,1.092,0,0,0,.464-.151l.025-.012a.626.626,0,0,0,.164-.405.7.7,0,0,0-.653-.652h-8.116a.52.52,0,0,1-.488-.485l.407-.325h8.2a.636.636,0,0,0,.653-.571.625.625,0,0,0-.164-.4.673.673,0,0,0-.489-.16h-8.116a.522.522,0,0,1-.488-.488.512.512,0,0,1,.407-.488h7.386a.527.527,0,0,0,.488-.485.7.7,0,0,0-.488-.569l-7.954-.812h-.488a2.568,2.568,0,0,0-1.868.729l-2.193,1.785h-.08a5.275,5.275,0,0,1-3.086,1.136h-.5a9.227,9.227,0,0,1,3.245-5.909,10.286,10.286,0,0,1,12.35-.589,9.213,9.213,0,0,1,3.573,4.636,2.45,2.45,0,0,0,2.284,1.614,2.139,2.139,0,0,0,.8-.153,2.75,2.75,0,0,0,1.461-1.216,2.284,2.284,0,0,0,.081-1.785,13.886,13.886,0,0,0-5.349-7.064,15.215,15.215,0,0,0-8.7-2.679l6.252-6.656a1.933,1.933,0,0,0,.568-1.625,2.291,2.291,0,0,0-.733-1.541,2.2,2.2,0,0,0-1.49-.562,2.264,2.264,0,0,0-1.676.723L1781.382,650l1.705-5.115a2.119,2.119,0,0,0-.163-1.705,1.966,1.966,0,0,0-1.377-1.136,2.631,2.631,0,0,0-.677-.089,2.217,2.217,0,0,0-2.165,1.551l-4.222,12.745-1.056-4.383a2.205,2.205,0,0,0-2.2-1.755Z" fill="#ed1c24"/>
    <g id="Group_11145" data-name="Group 11145" transform="translate(1820.564 634.518)">
      <g id="Group_10360" data-name="Group 10360" transform="translate(0 0)">
        <path id="Path_9751" data-name="Path 9751" d="M2512.645,726.927a1.343,1.343,0,0,1-1.343-1.343h0V713.416a6.6,6.6,0,0,1,5.606-6.435,1.343,1.343,0,0,1,.46,2.646,3.916,3.916,0,0,0-3.381,3.807v12.151A1.343,1.343,0,0,1,2512.645,726.927Z" transform="translate(-2460.792 -696.3)" fill="#323b49"/>
        <g id="Group_10355" data-name="Group 10355" transform="translate(41.121)">
          <path id="Path_9752" data-name="Path 9752" d="M2449.1,665.442a1.343,1.343,0,0,1-1.343-1.343h0V641.3a7.2,7.2,0,0,1,1.748-4.871,5.443,5.443,0,0,1,4.093-1.606,1.343,1.343,0,0,1,0,2.686,2.834,2.834,0,0,0-2.148.776,4.666,4.666,0,0,0-1,2.973V664.1a1.343,1.343,0,0,1-1.342,1.344Z" transform="translate(-2447.76 -634.814)" fill="#323b49"/>
        </g>
        <g id="Group_10356" data-name="Group 10356" transform="translate(42.122 10.661)">
          <path id="Path_9753" data-name="Path 9753" d="M2458.671,709.649h-2.792a1.343,1.343,0,1,1,0-2.686h2.792a1.343,1.343,0,0,1,0,2.686Z" transform="translate(-2454.536 -706.963)" fill="#323b49"/>
        </g>
        <path id="Path_9754" data-name="Path 9754" d="M2308.129,713.841a6.988,6.988,0,1,1-6.987,6.989h0a7,7,0,0,1,6.987-6.988m0-2.685a9.674,9.674,0,1,0,9.674,9.674,9.674,9.674,0,0,0-9.674-9.674Z" transform="translate(-2279.396 -699.875)" fill="#323b49"/>
        <path id="Path_9755" data-name="Path 9755" d="M2184.34,654.518a20.781,20.781,0,0,0-5.226-5,41.945,41.945,0,0,1-3.786-2.953,8.116,8.116,0,0,1-1.513-1.969,4.247,4.247,0,0,1-.378-1.893,3.676,3.676,0,0,1,1.212-2.8,4.175,4.175,0,0,1,3.026-1.136,4.873,4.873,0,0,1,2.65.757,10.254,10.254,0,0,1,1.968,1.817,1.308,1.308,0,0,0,1.817.151,1.356,1.356,0,0,0,.284-1.9c-.018-.025-.037-.049-.057-.072a11.657,11.657,0,0,0-2.8-2.5,7.438,7.438,0,0,0-3.786-.985,7.1,7.1,0,0,0-3.56.909,6.409,6.409,0,0,0-2.5,2.423,6.764,6.764,0,0,0-.908,3.407,7.351,7.351,0,0,0,1.512,4.392,28.2,28.2,0,0,0,4.544,4.013,22.466,22.466,0,0,1,5.072,4.77,5.222,5.222,0,0,1,1.061,2.953,4.76,4.76,0,0,1-.681,2.5,4.965,4.965,0,0,1-2.047,1.893,6.2,6.2,0,0,1-2.878.682c-2.047,0-3.862-1.211-5.528-3.711a1.329,1.329,0,0,0-1.741-.454,1.348,1.348,0,0,0-.454,1.817,10.73,10.73,0,0,0,3.18,3.407,8.829,8.829,0,0,0,4.771,1.439,7.938,7.938,0,0,0,5.83-2.348,7.225,7.225,0,0,0,2.347-5.452A8.1,8.1,0,0,0,2184.34,654.518Z" transform="translate(-2169.464 -635.855)" fill="#323b49"/>
        <g id="Group_10358" data-name="Group 10358" transform="translate(72.642 19.494)">
          <g id="Group_10357" data-name="Group 10357">
            <path id="Path_9756" data-name="Path 9756" d="M2662.426,777.88a1.343,1.343,0,0,1-1.343-1.343h0V768.09a1.343,1.343,0,0,1,2.686,0v8.443a1.343,1.343,0,0,1-1.339,1.347Z" transform="translate(-2661.083 -766.747)" fill="#323b49"/>
          </g>
        </g>
        <g id="Group_10359" data-name="Group 10359" transform="translate(55.984 10.963)">
          <path id="Path_9757" data-name="Path 9757" d="M2558.026,711.691a6.987,6.987,0,1,1-6.988,6.987,6.988,6.988,0,0,1,6.988-6.987m0-2.686a9.674,9.674,0,1,0,9.673,9.675v0A9.674,9.674,0,0,0,2558.026,709.005Z" transform="translate(-2548.351 -709.005)" fill="#323b49"/>
        </g>
      </g>
    </g>
    <g id="For_Business" data-name="For Business" transform="translate(1820.726 677.975)" style="isolation: isolate">
      <g id="Group_11040" data-name="Group 11040" transform="translate(0 0.031)" style="isolation: isolate">
        <path id="Path_1" data-name="Path 1" d="M2170.561,929.546h4.526v.641h-3.813v2.78h3.4v.641h-3.4v3.162h-.713Z" transform="translate(-2170.561 -929.484)" fill="#323b49"/>
        <path id="Path_2" data-name="Path 2" d="M2210.637,929.618a3.722,3.722,0,0,1,1.369,1.328,3.485,3.485,0,0,1,.506,1.839,3.537,3.537,0,0,1-.506,1.85,3.807,3.807,0,0,1-6.531,0,3.541,3.541,0,0,1-.506-1.85,3.489,3.489,0,0,1,.506-1.839,3.725,3.725,0,0,1,1.369-1.328,3.908,3.908,0,0,1,3.792,0Zm-3.415.553a3.04,3.04,0,0,0-1.116,1.1,2.91,2.91,0,0,0-.413,1.519,2.964,2.964,0,0,0,.413,1.529,3.052,3.052,0,0,0,1.116,1.111,2.992,2.992,0,0,0,1.53.408,2.943,2.943,0,0,0,1.513-.408,3.061,3.061,0,0,0,1.111-1.111,2.962,2.962,0,0,0,.414-1.529,2.909,2.909,0,0,0-.414-1.519,3.049,3.049,0,0,0-1.111-1.1,2.973,2.973,0,0,0-1.513-.4A3.022,3.022,0,0,0,2207.222,930.171Z" transform="translate(-2199.885 -929.127)" fill="#323b49"/>
        <path id="Path_3" data-name="Path 3" d="M2271.414,936.769l-1.56-2.356c-.221.014-.389.021-.506.021h-1.984v2.336h-.713v-7.223h2.7a3.149,3.149,0,0,1,2.093.625,2.194,2.194,0,0,1,.739,1.772,2.488,2.488,0,0,1-.434,1.5,2.264,2.264,0,0,1-1.24.837l1.736,2.49Zm-2.066-2.976a2.4,2.4,0,0,0,1.591-.47,1.677,1.677,0,0,0,.558-1.359,1.607,1.607,0,0,0-.558-1.323,2.462,2.462,0,0,0-1.591-.455h-1.984v3.607Z" transform="translate(-2252.453 -929.484)" fill="#323b49"/>
      </g>
      <g id="Group_11041" data-name="Group 11041" transform="translate(24.407 0)" style="isolation: isolate">
        <path id="Path_4" data-name="Path 4" d="M2340.575,929.956a1.572,1.572,0,0,1,.636,1.328,1.6,1.6,0,0,1-.352,1.049,1.708,1.708,0,0,1-.961.574,1.882,1.882,0,0,1,1.183.6,1.794,1.794,0,0,1,.429,1.225,1.71,1.71,0,0,1-.7,1.452,3.154,3.154,0,0,1-1.927.522h-3.141v-7.234h3.09A2.826,2.826,0,0,1,2340.575,929.956Zm-.754,2.3a.966.966,0,0,0,.367-.811.941.941,0,0,0-.367-.8,1.643,1.643,0,0,0-1.038-.269h-2.046v2.16h2.046A1.663,1.663,0,0,0,2339.821,932.261Zm.222,3.234a1.014,1.014,0,0,0,.455-.884.983.983,0,0,0-.455-.858,2.215,2.215,0,0,0-1.26-.31h-2.046V935.8h2.046A2.135,2.135,0,0,0,2340.042,935.5Z" transform="translate(-2335.744 -929.393)" fill="#323b49"/>
        <path id="Path_5" data-name="Path 5" d="M2386.033,935.32a2.038,2.038,0,0,0,1.524.563,2.007,2.007,0,0,0,1.509-.563,2.152,2.152,0,0,0,.548-1.566v-4.278h.992v4.278a2.99,2.99,0,0,1-.812,2.222,3.033,3.033,0,0,1-2.237.806,3.067,3.067,0,0,1-2.253-.806,2.981,2.981,0,0,1-.816-2.222v-4.278h.992v4.278A2.14,2.14,0,0,0,2386.033,935.32Z" transform="translate(-2377.286 -929.393)" fill="#323b49"/>
        <path id="Path_6" data-name="Path 6" d="M2437.772,930.028a3.546,3.546,0,0,0-1-.16,1.842,1.842,0,0,0-1.008.243.755.755,0,0,0-.377.667.878.878,0,0,0,.227.625,1.608,1.608,0,0,0,.558.382q.331.139.92.326a10.419,10.419,0,0,1,1.188.434,2.063,2.063,0,0,1,.775.615,1.7,1.7,0,0,1,.32,1.08,1.805,1.805,0,0,1-.336,1.085,2.15,2.15,0,0,1-.94.718,3.573,3.573,0,0,1-1.39.253,4.04,4.04,0,0,1-1.55-.31,4.2,4.2,0,0,1-1.3-.827l.444-.858a3.728,3.728,0,0,0,1.162.78,3.205,3.205,0,0,0,1.255.274,2.006,2.006,0,0,0,1.142-.284.886.886,0,0,0,.418-.77.9.9,0,0,0-.227-.63,1.6,1.6,0,0,0-.573-.393,9.829,9.829,0,0,0-.935-.32,9.587,9.587,0,0,1-1.178-.424,2.03,2.03,0,0,1-.77-.61,1.678,1.678,0,0,1-.315-1.064,1.7,1.7,0,0,1,.32-1.023,2.021,2.021,0,0,1,.9-.682,3.514,3.514,0,0,1,1.343-.238,4.346,4.346,0,0,1,1.276.191,4.284,4.284,0,0,1,1.111.511l-.413.889A4.163,4.163,0,0,0,2437.772,930.028Z" transform="translate(-2419.363 -928.917)" fill="#323b49"/>
        <path id="Path_7" data-name="Path 7" d="M2481.905,929.476h.992v7.234h-.992Z" transform="translate(-2460.308 -929.393)" fill="#323b49"/>
        <path id="Path_8" data-name="Path 8" d="M2507.751,929.476h.982v7.234h-1l-4.133-5.6v5.6h-.992v-7.234h1l4.144,5.611Z" transform="translate(-2477.949 -929.393)" fill="#323b49"/>
        <path id="Path_9" data-name="Path 9" d="M2558.133,929.476h5.022v.9h-4.03v2.232h3.606v.9h-3.606v2.3h4.154v.9h-5.146Z" transform="translate(-2525.273 -929.393)" fill="#323b49"/>
        <path id="Path_10" data-name="Path 10" d="M2602.746,930.028a3.548,3.548,0,0,0-1-.16,1.841,1.841,0,0,0-1.007.243.754.754,0,0,0-.377.667.877.877,0,0,0,.227.625,1.608,1.608,0,0,0,.558.382q.331.139.92.326a10.4,10.4,0,0,1,1.188.434,2.058,2.058,0,0,1,.775.615,1.7,1.7,0,0,1,.32,1.08,1.805,1.805,0,0,1-.336,1.085,2.154,2.154,0,0,1-.94.718,3.57,3.57,0,0,1-1.39.253,4.039,4.039,0,0,1-1.55-.31,4.2,4.2,0,0,1-1.3-.827l.444-.858a3.726,3.726,0,0,0,1.163.78,3.2,3.2,0,0,0,1.255.274,2.006,2.006,0,0,0,1.142-.284.885.885,0,0,0,.418-.77.9.9,0,0,0-.227-.63,1.61,1.61,0,0,0-.573-.393,9.853,9.853,0,0,0-.935-.32,9.563,9.563,0,0,1-1.178-.424,2.036,2.036,0,0,1-.77-.61,1.68,1.68,0,0,1-.315-1.064,1.7,1.7,0,0,1,.321-1.023,2.022,2.022,0,0,1,.9-.682,3.517,3.517,0,0,1,1.344-.238,4.348,4.348,0,0,1,1.276.191,4.286,4.286,0,0,1,1.111.511l-.413.889A4.171,4.171,0,0,0,2602.746,930.028Z" transform="translate(-2559.961 -928.917)" fill="#323b49"/>
        <path id="Path_11" data-name="Path 11" d="M2645.825,930.028a3.545,3.545,0,0,0-1-.16,1.841,1.841,0,0,0-1.007.243.754.754,0,0,0-.378.667.877.877,0,0,0,.228.625,1.6,1.6,0,0,0,.558.382q.331.139.92.326a10.413,10.413,0,0,1,1.188.434,2.059,2.059,0,0,1,.775.615,1.7,1.7,0,0,1,.32,1.08,1.8,1.8,0,0,1-.336,1.085,2.149,2.149,0,0,1-.94.718,3.571,3.571,0,0,1-1.39.253,4.039,4.039,0,0,1-1.55-.31,4.2,4.2,0,0,1-1.3-.827l.444-.858a3.729,3.729,0,0,0,1.163.78,3.2,3.2,0,0,0,1.255.274,2,2,0,0,0,1.142-.284.885.885,0,0,0,.419-.77.9.9,0,0,0-.227-.63,1.608,1.608,0,0,0-.573-.393,9.853,9.853,0,0,0-.935-.32,9.578,9.578,0,0,1-1.178-.424,2.032,2.032,0,0,1-.77-.61,1.68,1.68,0,0,1-.315-1.064,1.7,1.7,0,0,1,.32-1.023,2.024,2.024,0,0,1,.9-.682,3.513,3.513,0,0,1,1.343-.238,4.347,4.347,0,0,1,1.276.191,4.29,4.29,0,0,1,1.111.511l-.413.889A4.165,4.165,0,0,0,2645.825,930.028Z" transform="translate(-2596.674 -928.917)" fill="#323b49"/>
      </g>
    </g>
  </g>
</svg>
